<svg xmlns="http://www.w3.org/2000/svg" viewBox="0 0 399.47 387.07"><defs><style>.cls-1{fill:#fff;}</style></defs><title>Isologo</title><g id="Layer_2" data-name="Layer 2"><g id="Capa_1" data-name="Capa 1"><path class="cls-1" d="M399.45,46c0-.56-.48-1.68-.83-1.68a.43.43,0,0,0-.64.12c-.66,1.14-1.25,3.06-2.8,5.82-3.8,6.73-3.83,6.49-7.19,10.46,0,0-.49.34-.71-.61a1.31,1.31,0,0,0,.18-.42c.56-3,1.25-6,1.56-9.09a108.72,108.72,0,0,0-1.91-33.85,60,60,0,0,0-2.57-8.12c-.24-.64-1.21-1-1.84-1.54-.38.62-1,1.21-1.09,1.85a67.14,67.14,0,0,0-.45,7.59c.07,6.5.49,13,.38,19.5-.09,5.36-.56,12.88-4.1,15.81a8,8,0,0,1-5,1.83,7.64,7.64,0,0,1-5-1.84,88.6,88.6,0,0,1-19.63-24.46c-3.6-6.42-5.1-13.53-6.62-20.59-.4-1.85-.8-3.7-1.32-5.52-.14-.49-.73-.86-1.11-1.28-.39.34-1,.63-1.14,1a30.6,30.6,0,0,0-1.71,6.1c-1.28,12.11,2.51,23.1,8.62,33.52,2.48,4.23,5.19,8.36,7.53,12.66,4.22,7.75,5.87,16,3.73,24.56-3,12-9.78,21.89-19.82,29.72a16.18,16.18,0,0,1-9.24,3.79,4.85,4.85,0,0,1-5.14-3.76,31.69,31.69,0,0,1-.07-6.36,98.89,98.89,0,0,0-.71-24.14c-.8-5.32-1.77-10.63-4.44-15.48-1.09-2-2.29-3.94-5.21-4.49a9.05,9.05,0,0,0-.16,1.94c.23,1.63.6,3.24.86,4.86a86.93,86.93,0,0,1,.05,29.12c-1.34,7.58-3.73,14.61-8,20.63-.5-7.17-1.53-15.13-3.89-21a17.94,17.94,0,0,0-3.74-5.83A4.58,4.58,0,0,0,294,85.59c-.53,0-.43,0-.65.09-.28.26.24,3.72.62,5.43a72.13,72.13,0,0,1,1.63,20.59c-.28,4,.46,6.63-2.92,11.16-10.47,7.12-29.06,12.53-36.52,11.76-6.26-.65-9.62-7-10.58-12.83-1.31-8,.77-15.37,5.41-22.07,1.91-2.75,4.25-5.24,6.36-7.88.34-.43.77-1.24.59-1.5-.31-.45-4.34-1.54-10.74,3.32-5.26,4-7.56,9.87-9.69,15.71-2.41,6.62-2.57,13.55-3,20.44-.42,6.26-8.09,13.94-14.43,18.78a71,71,0,0,1-16.24,8.74c-5.25,1.81-9.3-.13-14.25-2.83-3.52-1.92-5.55-2.24-10.14-5.93h.12c-.68-.52-1.38-1.08-2.08-1.66-1.68-1.47-3.67-3.34-6.09-5.76-3.39-3.72-6-7.77-6.26-11.36-.47-6.89-.62-13.83-3-20.44-2.13-5.84-4.43-11.72-9.69-15.71-6.4-4.86-10.43-3.76-10.74-3.32-.19.27.25,1.07.59,1.5,2.1,2.64,4.44,5.13,6.36,7.88,4.65,6.7,6.72,14,5.41,22.07-1,5.86-4.33,12.18-10.58,12.83-7.46.77-26.05-4.64-36.52-11.76-3.38-4.53-2.64-7.21-2.92-11.16a72.13,72.13,0,0,1,1.63-20.59c.38-1.72.89-5.17.62-5.43-.22-.09-.12-.09-.65-.09a4.58,4.58,0,0,0-2.31,1.27,18,18,0,0,0-3.74,5.83c-2.36,5.9-3.39,13.86-3.89,21-4.29-6-6.68-13-8-20.63A86.93,86.93,0,0,1,87.6,64c.26-1.63.63-3.24.86-4.86a9.05,9.05,0,0,0-.16-1.94c-2.93.54-4.12,2.5-5.22,4.49-2.67,4.85-3.63,10.16-4.44,15.48a98.92,98.92,0,0,0-.71,24.14,31.62,31.62,0,0,1-.07,6.36,4.85,4.85,0,0,1-5.14,3.76,16.18,16.18,0,0,1-9.24-3.79c-10-7.83-16.83-17.69-19.82-29.72-2.14-8.6-.5-16.81,3.73-24.56,2.34-4.3,5.05-8.42,7.53-12.66C61,30.24,64.82,19.25,63.54,7.14A30.6,30.6,0,0,0,61.83,1c-.14-.42-.75-.7-1.14-1-.38.42-1,.79-1.11,1.28C59.06,3.1,58.66,5,58.26,6.8c-1.52,7.06-3,14.17-6.62,20.59A88.6,88.6,0,0,1,32,51.85a7.64,7.64,0,0,1-5,1.84,8,8,0,0,1-5-1.83c-3.55-2.93-4-10.45-4.1-15.81-.11-6.5.31-13,.38-19.5A67.14,67.14,0,0,0,17.86,9c-.07-.65-.71-1.24-1.09-1.85-.63.51-1.6.9-1.84,1.54a60,60,0,0,0-2.57,8.12,108.74,108.74,0,0,0-1.91,33.85c.3,3,1,6.06,1.56,9.09a1.31,1.31,0,0,0,.18.42c-.22,1-.71.61-.71.61-3.35-4-3.39-3.73-7.19-10.46-1.56-2.76-2.14-4.68-2.8-5.82a.43.43,0,0,0-.64-.12C.5,44.35,0,45.47,0,46a19,19,0,0,0,.33,5A47.28,47.28,0,0,0,6.42,64.1h0A142.69,142.69,0,0,0,19,84.48h0C29.68,101.64,52,114.87,69.19,123c10.31,5.08,22.29,9.38,32.47,12.93,7.89,2.75,42.23,7.33,52,10.34l2.52.94c5.21,2,9.08,5.38,10,11,.51,3.27-.88,6.48-3.48,7.81-2.41,1.24-5.18.66-8-1.79-1.56-1.37-3-2.83-4.47-4.29-5.34-5.39-11.36-9.85-19.14-11.53-7.35-1.59-14.76-2.95-22.15-4.35-2-.39-3.51.53-3.74,2.52a13.43,13.43,0,0,0,.25,4.71,40.77,40.77,0,0,0,6.25,13.19c4.15,6.08,9.31,11.06,16.71,13.62.31.11.63.19.94.29A61,61,0,0,0,143.8,178c1.31-.18,2.58-.41,3.92-.63s2.8-.42,4.22-.55a38.36,38.36,0,0,1,8.7.18,32.06,32.06,0,0,1,4.36,1,27.22,27.22,0,0,1,4.21,1.69,20.8,20.8,0,0,1,7,5.79,20.23,20.23,0,0,1,3.7,8c.17.71.24,1.42.36,2.13a7.25,7.25,0,0,1-.05,2.34,4.59,4.59,0,0,1-1,2.15,2.13,2.13,0,0,1-2.08.68,1.77,1.77,0,0,0,1.37-1.15,3.54,3.54,0,0,0,.11-1.74,7.32,7.32,0,0,0-.5-1.71c-.29-.59-.53-1.2-.86-1.77a22,22,0,0,0-4.42-6c-3.5-3.35-8.14-5.08-13.08-5.79a47.37,47.37,0,0,0-7.58-.44q.35,2,.7,4.21a6.82,6.82,0,0,0-.72,1.42c-.89,2.47-.46,5.42,1.31,9a13.81,13.81,0,0,0,1.06,1.78,18.91,18.91,0,0,1,2.11,1.69,16.68,16.68,0,0,1,1.29,1.34c.2.24.39.5.58.76s.19.27.27.42a3.2,3.2,0,0,1,.28.55l0,.09a107.72,107.72,0,0,0,5.8,15.12,73.61,73.61,0,0,0,3.92,7,54.15,54.15,0,0,0,4.85,6.66,22.91,22.91,0,0,1-6.77-5.18,35.2,35.2,0,0,1-5-7A41.4,41.4,0,0,1,157,203.91l0,.09a.9.9,0,0,0-.06-.27l-.13-.36c-.1-.25-.21-.5-.34-.74-.24-.5-.5-1-.8-1.51l-.88-1.45c1.54,11.6,2.76,22.66,2.76,22.69,0,7.91-.36,23.16-3.28,29.43-4.83,10.37-7.53,16.43-12.07,26.92h0c-3.13,7.22-5.61,12.41-6.27,20.24h0c-1.3,15.52,3.68,29.37,13,41.94,7.15,9.59,16.12,17.53,25.47,25.14q10.86,8.84,21.6,17.81c1.14.95,2.1,2.08,3.25,3.22v0l0,0h0c.06-.18.1-.39.16-.58,4.25-13.16,12.16-24,21.11-34.61l-6.3,20.48.52.26h0c13.21-15,21.42-31.71,21.69-51.39q0-1,0-2.18c0-.2,0-.4,0-.61.33.19.5.34.56.52a56.26,56.26,0,0,1,2.44,20.49c-.2,2.33-.39,4.65-.58,7l-3.13,9.14.52.21h0l4.46-7.57c1.16-2,2.5-3.9,3.47-6a64.29,64.29,0,0,0,5.3-39c-.71-4.16-1.91-8.24-3-12.6a73.21,73.21,0,0,1,13,33.6v0c.34-.71.49-1,.59-1.24a55,55,0,0,0,1.37-34c-3.53-12.62-10.93-26-16.77-37.79-5-10-3.48-29.08-3.11-33,.53-4.55,1.45-12.31,2.5-20.11l-.91,1.44-.91,1.5c-.3.5-.56,1-.8,1.51-.13.25-.24.5-.34.74l-.13.36a.9.9,0,0,0-.06.27l0-.09a41.4,41.4,0,0,1-4.92,16.27,35.2,35.2,0,0,1-5,7,22.91,22.91,0,0,1-6.77,5.18,54.15,54.15,0,0,0,4.85-6.66,73.61,73.61,0,0,0,3.92-7,107.72,107.72,0,0,0,5.8-15.12l0-.09a3.2,3.2,0,0,1,.28-.55c.09-.15.18-.29.27-.42s.38-.52.58-.76a16.68,16.68,0,0,1,1.29-1.34,19.47,19.47,0,0,1,2.82-2.19l0-.27c.14-.21.28-.42.41-.63,2-3.31,2.58-6.3,1.79-8.87a7.1,7.1,0,0,0-.62-1.43c.26-1.68.52-3.25.78-4.71h-.19a47.64,47.64,0,0,0-7.61.43c-4.94.71-9.58,2.43-13.08,5.79a21.93,21.93,0,0,0-4.42,6c-.33.56-.57,1.18-.86,1.77a7.36,7.36,0,0,0-.5,1.71,3.55,3.55,0,0,0,.12,1.75,1.78,1.78,0,0,0,1.37,1.15,2.13,2.13,0,0,1-2.08-.68,4.58,4.58,0,0,1-1-2.15,7.22,7.22,0,0,1-.05-2.34c.12-.71.19-1.43.36-2.13a20.24,20.24,0,0,1,3.7-8,20.8,20.8,0,0,1,7-5.79,26.8,26.8,0,0,1,4.2-1.69,31.75,31.75,0,0,1,4.36-1,38.3,38.3,0,0,1,8.7-.19c1.42.13,2.83.3,4.22.55s2.61.45,3.92.63a60.63,60.63,0,0,0,16,.28,30.67,30.67,0,0,0,7.63-4c6.41-4.58,10.58-10.77,13.69-17.66,1.33-2.94,2.57-5.91,2.31-9.22-.21-2.7-1.84-3.81-4.53-3.25-3.59.75-7.22,1.32-10.8,2.1-4.92,1.06-9.9,2-14.69,3.42-5.71,1.73-10.13,5.47-14.3,9.44a59.68,59.68,0,0,1-7.54,6.58,5.81,5.81,0,0,1-8.91-3.46,10.62,10.62,0,0,1,1-8.07c2.11-4,5.91-6.06,10-7.57,8.14-3,44.88-7.83,53.07-10.68,10.4-3.62,22.67-8,33.13-13.25,17-8.19,38.9-21.27,49.47-38.16.92-1.23,1.85-2.53,2.79-3.89l.51-.74.88-1.31.93-1.42.62-1q.63-1,1.25-2l.36-.6c1.77-2.93,3.55-6.09,5.31-9.52h0A47.26,47.26,0,0,0,399.12,51,19,19,0,0,0,399.45,46ZM240.82,188.93s2.19,1-.56,5.62c-2.44,4.08-8,6-11.6,3a29.78,29.78,0,0,0-4.19-2.44A14.09,14.09,0,0,1,240.82,188.93Zm-71,8.63c-4.19,3.35-9.47,1.31-11.6-3-2.37-4.81-.56-5.62-.56-5.62a14.09,14.09,0,0,1,16.36,6.2A32.58,32.58,0,0,0,169.83,197.56Zm14.11,58.61c4.47-.52,8.76-.85,13-1.58a14.54,14.54,0,0,1,5.67,0c4.24.85,8.6,1.1,13.12,1.62,0,1.57-3.94,6-9.23,7.17a28.12,28.12,0,0,1-16-.81A10.32,10.32,0,0,1,183.94,256.17Zm39.77-12.6a10.2,10.2,0,0,1-9.47,9.39,22.9,22.9,0,0,1-13.67-3.12c3.63-.87,9.5-1.54,13.32-6.51a19.33,19.33,0,0,1-3.28-1,3.74,3.74,0,0,1-2.15-2c-.11-.36-.13-1.27.41-1.53a2.44,2.44,0,0,1,1.45.1c1,.41,2,1.08,3,1.4a2.41,2.41,0,0,0,3.25-1.57,7.51,7.51,0,0,0-2.28-7.93c-1.46-1.07-3.06-.7-4.65-.28-2.81.74-5.6,1.87-8.46,2.07a19.9,19.9,0,0,1-7.44-.88c-1-.26-2.63-.82-3.64-1.12-2-.6-4-1-5.62,1-1.89,2.31-2.53,5.79-1.33,7.65a2.47,2.47,0,0,0,3,1.14c1-.33,1.87-.94,2.85-1.29a2.9,2.9,0,0,1,1.81-.18c.45.27.34,1.43.06,1.91a4.52,4.52,0,0,1-2.61,1.86c-.72.28-1.52.43-3,.81a14.43,14.43,0,0,0,5.56,4.28,23,23,0,0,0,8.25,2.13c-5.5,2.93-10.84,4.34-16.53,2.58-5.25-1.63-7.93-7.2-6.53-12.82a18.53,18.53,0,0,1,5.53-9.48c3.83-3.48,7.8-6.81,11.67-10.24,1.54-1.36,3-2.75,4.52-4.13a3.27,3.27,0,0,1,1.7-.66,3.76,3.76,0,0,1,2.11.73c1.28,1.15,2.57,2.31,3.89,3.46,4.13,3.6,8.42,7.05,12.38,10.81S224,238.18,223.71,243.58Z"/></g></g></svg>